<svg xmlns="http://www.w3.org/2000/svg" viewBox="0 0 240 72" preserveAspectRatio="none">
  <!-- Raffle ticket: straight top/bottom, four semicircular scallops per vertical edge -->
  <path
    fill="white"
    d="M 0 0
       H 240
       V 4
       A 8 8 0 0 0 240 20
       A 8 8 0 0 0 240 36
       A 8 8 0 0 0 240 52
       A 8 8 0 0 0 240 68
       V 72
       H 0
       V 68
       A 8 8 0 0 0 0 52
       A 8 8 0 0 0 0 36
       A 8 8 0 0 0 0 20
       A 8 8 0 0 0 0 4
       V 0
       Z"
  />
</svg>
